PathFileType	4	(X/Y/Z)	/Users/itak/Documents/Research/Walk-IL/dataset/trc/00420_00012.trc
DataRate	CameraRate	NumFrames	NumMarkers	Units	OrigDataRate	OrigDataStartFrame	OrigNumFrames
100.000000	100.000000	4	53	mm	100.000000	77	617
Frame#	Time	RPSI			LPSI			L3			STRN			T10			C7			CLAV			RBAK			LBAK			LSHO			LUPA			LAEL			LAOL			LWTS			LWPS			LFRA			LIFD			LHPS			LHTS			RSHO			RUPA			RAEL			RAOL			RWTS			RWPS			RFRA			RIFD			RHTS			RHPS			RBHD			LFHD			RFHD			LBHD			LHIP			RHIP			RASI			LASI			LKNE			LTHI			LANK			LTIP			LTOE			LMT1			LMT5			LHEE			RKNE			RTHI			RANK			RTIP			RTOE			RMT1			RMT5			RHEE			
		X1	Y1	Z1	X2	Y2	Z2	X3	Y3	Z3	X4	Y4	Z4	X5	Y5	Z5	X6	Y6	Z6	X7	Y7	Z7	X8	Y8	Z8	X9	Y9	Z9	X10	Y10	Z10	X11	Y11	Z11	X12	Y12	Z12	X13	Y13	Z13	X14	Y14	Z14	X15	Y15	Z15	X16	Y16	Z16	X17	Y17	Z17	X18	Y18	Z18	X19	Y19	Z19	X20	Y20	Z20	X21	Y21	Z21	X22	Y22	Z22	X23	Y23	Z23	X24	Y24	Z24	X25	Y25	Z25	X26	Y26	Z26	X27	Y27	Z27	X28	Y28	Z28	X29	Y29	Z29	X30	Y30	Z30	X31	Y31	Z31	X32	Y32	Z32	X33	Y33	Z33	X34	Y34	Z34	X35	Y35	Z35	X36	Y36	Z36	X37	Y37	Z37	X38	Y38	Z38	X39	Y39	Z39	X40	Y40	Z40	X41	Y41	Z41	X42	Y42	Z42	X43	Y43	Z43	X44	Y44	Z44	X45	Y45	Z45	X46	Y46	Z46	X47	Y47	Z47	X48	Y48	Z48	X49	Y49	Z49	X50	Y50	Z50	X51	Y51	Z51	X52	Y52	Z52	X53	Y53	Z53	

78	0.77	-1540.623657226562	993.024658203125	-588.107421875	-1552.36181640625	984.1858520507812	-719.2362670898438	-1544.635375976562	1061.442138671875	-652.0049438476562	-1309.76513671875	1214.33154296875	-662.4732666015625	-1554.514038085938	1165.156616210938	-656.8872680664062	-1517.342651367188	1413.73095703125	-670.0196533203125	-1360.365356445312	1333.637573242188	-663.4639282226562	-1559.198120117188	1269.263916015625	-598.5681762695312	-1530.918334960938	1374.682739257812	-774.3453979492188	-1443.681518554688	1389.673706054688	-823.3502807617188	-1455.422119140625	1271.565673828125	-894.26318359375	-1414.836059570312	1074.068603515625	-908.3790283203125	-1477.363647460938	1051.363159179688	-855.6309204101562	-1316.049926757812	867.8274536132812	-835.1314697265625	-1348.107666015625	848.53759765625	-907.314697265625	-1387.359375	971.1160278320312	-910.3665771484375	-1302.09423828125	689.7125244140625	-825.6226806640625	-1328.874877929688	764.9789428710938	-892.0797729492188	-1287.133666992188	772.5980224609375	-845.0027465820312	-1454.03173828125	1393.412963867188	-510.9237365722656	-1460.052001953125	1326.855712890625	-451.4285278320312	-1415.3857421875	1066.203125	-411.5933532714844	-1447.506958007812	1053.613037109375	-497.6250305175781	-1278.555419921875	858.797119140625	-462.6790771484375	-1306.383178710938	846.7163696289062	-393.6530151367188	-1380.908813476562	1005.099060058594	-399.8823852539062	-1271.220703125	686.786376953125	-462.6354064941406	-1249.885498046875	755.6326293945312	-447.8210144042969	-1295.984008789062	758.2418212890625	-394.9127197265625	-1500.261352539062	1594.433227539062	-583.5875854492188	-1348.380615234375	1618.000244140625	-711.7288208007812	-1368.357055664062	1616.158203125	-590.3998413085938	-1491.072998046875	1594.499755859375	-745.900146484375	-1470.685791015625	969.4600830078125	-836.0685424804688	-1451.422119140625	968.4180908203125	-478.4305725097656	-1323.823974609375	974.0145263671875	-540.86669921875	-1356.077026367188	965.7899780273438	-801.601806640625	-1428.582397460938	475.1217041015625	-813.2904663085938	-1434.605834960938	617.3265380859375	-825.7117309570312	-1515.2158203125	42.68384552001953	-757.8450927734375	-1474.212158203125	244.3444061279297	-798.8428344726562	-1294.90478515625	46.32160568237305	-716.1556396484375	-1373.210571289062	45.20808029174805	-678.3846435546875	-1389.893676757812	41.88064956665039	-782.2230224609375	-1546.001831054688	41.5342903137207	-697.1751098632812	-1416.0498046875	477.1581420898438	-499.6853637695312	-1375.417114257812	741.2637939453125	-483.0942687988281	-1460.992309570312	58.30069732666016	-528.2916870117188	-1406.232299804688	352.0451965332031	-514.2285766601562	-1283.245727539062	40.2513542175293	-599.2531127929688	-1361.967163085938	43.5986213684082	-625.6910400390625	-1375.87548828125	49.04165267944336	-527.7088012695312	-1535.618896484375	44.33106994628906	-577.419921875	
79	0.78	-1540.611450195312	993.029296875	-588.1248779296875	-1552.348388671875	984.1898803710938	-719.2515869140625	-1544.618896484375	1061.445678710938	-652.0238037109375	-1309.763916015625	1214.321533203125	-662.5224609375	-1554.480590820312	1165.148315429688	-656.903564453125	-1517.360961914062	1413.726806640625	-670.038818359375	-1360.384887695312	1333.63916015625	-663.4923706054688	-1559.210571289062	1269.256225585938	-598.5808715820312	-1530.929321289062	1374.675537109375	-774.3612060546875	-1443.683349609375	1389.67333984375	-823.365966796875	-1455.4443359375	1271.561645507812	-894.290771484375	-1414.849975585938	1074.067504882812	-908.4061889648438	-1477.361083984375	1051.357177734375	-855.6464233398438	-1316.060546875	867.8157958984375	-835.1530151367188	-1348.107543945312	848.5584716796875	-907.342529296875	-1387.312255859375	971.1211547851562	-910.4014282226562	-1302.014038085938	689.767822265625	-825.6548461914062	-1328.789916992188	764.9873657226562	-892.0992431640625	-1287.022827148438	772.6170654296875	-844.990966796875	-1454.030517578125	1393.418212890625	-510.9479675292969	-1460.048095703125	1326.860595703125	-451.4494934082031	-1415.354858398438	1066.212158203125	-411.5989074707031	-1447.428833007812	1053.616088867188	-497.6139221191406	-1278.42822265625	858.824951171875	-462.6580200195312	-1306.311157226562	846.7393798828125	-393.6552734375	-1380.856689453125	1005.109313964844	-399.8960876464844	-1271.167114257812	686.804931640625	-462.6416015625	-1249.837524414062	755.6461181640625	-447.8417358398438	-1295.933471679688	758.2752075195312	-394.9195251464844	-1500.252319335938	1594.55419921875	-583.6569213867188	-1348.4296875	1617.924560546875	-711.79931640625	-1368.273071289062	1616.175415039062	-590.518310546875	-1491.08935546875	1594.484619140625	-745.9470825195312	-1470.619384765625	969.4562377929688	-836.0791625976562	-1451.4248046875	968.42431640625	-478.4449462890625	-1323.809936523438	974.0242919921875	-540.8743896484375	-1356.022583007812	965.7974853515625	-801.5989379882812	-1428.57666015625	475.1197814941406	-813.2968139648438	-1434.58837890625	617.3211669921875	-825.719482421875	-1515.212890625	42.67824172973633	-757.8484497070312	-1474.216186523438	244.3472442626953	-798.847412109375	-1294.918212890625	46.32339859008789	-716.1558227539062	-1373.303344726562	45.17475891113281	-678.4038696289062	-1389.890625	41.8782958984375	-782.2224731445312	-1546.0029296875	41.53508377075195	-697.1744995117188	-1416.053833007812	477.1594543457031	-499.6910705566406	-1375.41162109375	741.2691040039062	-483.1028442382812	-1460.997192382812	58.31105804443359	-528.2833251953125	-1406.232299804688	352.0391540527344	-514.2252807617188	-1283.210815429688	40.25797271728516	-599.240478515625	-1361.965576171875	43.59589004516602	-625.69140625	-1375.8642578125	49.04756546020508	-527.7141723632812	-1535.6142578125	44.32822799682617	-577.4186401367188	
80	0.79	-1540.596069335938	993.0321044921875	-588.1400756835938	-1552.337158203125	984.1926879882812	-719.2661743164062	-1544.602905273438	1061.450561523438	-652.0418701171875	-1309.768920898438	1214.308227539062	-662.5772705078125	-1554.447387695312	1165.141723632812	-656.918701171875	-1517.376953125	1413.724243164062	-670.0582275390625	-1360.404541015625	1333.639404296875	-663.5214233398438	-1559.220458984375	1269.250366210938	-598.5943603515625	-1530.937622070312	1374.669799804688	-774.3778076171875	-1443.682861328125	1389.673706054688	-823.38232421875	-1455.466918945312	1271.557983398438	-894.31884765625	-1414.863647460938	1074.0654296875	-908.4342651367188	-1477.357543945312	1051.3505859375	-855.6616821289062	-1316.059814453125	867.8048706054688	-835.1734008789062	-1348.086547851562	848.5728759765625	-907.3716430664062	-1387.270751953125	971.1262817382812	-910.4352416992188	-1301.933959960938	689.8342895507812	-825.68359375	-1328.700805664062	764.9942016601562	-892.1165771484375	-1286.992309570312	772.6405639648438	-845.0123291015625	-1454.027099609375	1393.424194335938	-510.9735107421875	-1460.042114257812	1326.866455078125	-451.4719543457031	-1415.325927734375	1066.220947265625	-411.6081237792969	-1447.341552734375	1053.618774414062	-497.6027526855469	-1278.318237304688	858.8561401367188	-462.6491088867188	-1306.240356445312	846.7604370117188	-393.6614379882812	-1380.8056640625	1005.119018554688	-399.91357421875	-1271.119140625	686.8240356445312	-462.65380859375	-1249.793579101562	755.6605834960938	-447.8655395507812	-1295.88818359375	758.3108520507812	-394.9301147460938	-1500.230712890625	1594.627197265625	-583.7299194335938	-1348.46337890625	1617.87158203125	-711.8705444335938	-1368.204833984375	1616.186279296875	-590.62255859375	-1491.1171875	1594.475708007812	-745.9912719726562	-1470.560668945312	969.4514770507812	-836.0887451171875	-1451.42333984375	968.4297485351562	-478.4565124511719	-1323.79296875	974.0342407226562	-540.8827514648438	-1355.970947265625	965.8043212890625	-801.5972900390625	-1428.57080078125	475.1177062988281	-813.3026733398438	-1434.573608398438	617.3168334960938	-825.7265014648438	-1515.20849609375	42.6724739074707	-757.8525390625	-1474.219604492188	244.3500213623047	-798.8526611328125	-1294.91943359375	46.31784057617188	-716.1538696289062	-1373.321166992188	45.16825485229492	-678.407470703125	-1389.887939453125	41.87634658813477	-782.2220458984375	-1546.003662109375	41.53446578979492	-697.1748657226562	-1416.05224609375	477.1624755859375	-499.6977844238281	-1375.40673828125	741.2730712890625	-483.1114807128906	-1460.991333007812	58.31853485107422	-528.2670288085938	-1406.229858398438	352.03271484375	-514.2247924804688	-1283.17724609375	40.25621032714844	-599.2269897460938	-1361.965576171875	43.59170532226562	-625.6907348632812	-1375.853515625	49.0528678894043	-527.7190551757812	-1535.606201171875	44.31787490844727	-577.41455078125	
81	0.8	-1540.576416015625	993.033447265625	-588.1527099609375	-1552.327026367188	984.1942138671875	-719.2799072265625	-1544.587280273438	1061.456909179688	-652.05908203125	-1309.781127929688	1214.291870117188	-662.636474609375	-1554.416381835938	1165.137451171875	-656.933349609375	-1517.390869140625	1413.723510742188	-670.0776977539062	-1360.423217773438	1333.638305664062	-663.5503540039062	-1559.227783203125	1269.247314453125	-598.6079711914062	-1530.94384765625	1374.66552734375	-774.3953857421875	-1443.680053710938	1389.674926757812	-823.3995971679688	-1455.488037109375	1271.5546875	-894.3467407226562	-1414.876953125	1074.062377929688	-908.4631958007812	-1477.353393554688	1051.343872070312	-855.6764526367188	-1316.040893554688	867.7978515625	-835.1935424804688	-1348.043090820312	848.5803833007812	-907.4020385742188	-1387.234619140625	971.13037109375	-910.4676513671875	-1301.854125976562	689.9169921875	-825.7073974609375	-1328.610107421875	764.9998168945312	-892.1323852539062	-1287.029174804688	772.6665649414062	-845.0608520507812	-1454.021118164062	1393.431884765625	-511.0001525878906	-1460.033569335938	1326.87353515625	-451.4954223632812	-1415.289916992188	1066.230712890625	-411.618408203125	-1447.265991210938	1053.622192382812	-497.596435546875	-1278.21923828125	858.892578125	-462.6526184082031	-1306.170776367188	846.7803344726562	-393.6713562011719	-1380.756958007812	1005.12890625	-399.9350280761719	-1271.077270507812	686.8440551757812	-462.6717529296875	-1249.75244140625	755.6773071289062	-447.89306640625	-1295.8466796875	758.3487548828125	-394.9451599121094	-1500.199951171875	1594.654296875	-583.801513671875	-1348.484008789062	1617.841186523438	-711.9422607421875	-1368.162841796875	1616.188232421875	-590.7084350585938	-1491.153442382812	1594.470703125	-746.0317993164062	-1470.510986328125	969.4456787109375	-836.0973510742188	-1451.418823242188	968.4346313476562	-478.4663391113281	-1323.771484375	974.0458984375	-540.8914794921875	-1355.910278320312	965.8114624023438	-801.593017578125	-1428.565307617188	475.1156005859375	-813.3084716796875	-1434.561157226562	617.3135375976562	-825.7328491210938	-1515.204833984375	42.66778945922852	-757.8560791015625	-1474.221923828125	244.3523101806641	-798.8583984375	-1294.911376953125	46.30659484863281	-716.1503295898438	-1373.263549804688	45.18875122070312	-678.395263671875	-1389.886108398438	41.875	-782.2216796875	-1546.00439453125	41.53256225585938	-697.1761474609375	-1416.045288085938	477.1671752929688	-499.7059326171875	-1375.402709960938	741.2752685546875	-483.119384765625	-1460.975463867188	58.32233810424805	-528.245361328125	-1406.22509765625	352.0269775390625	-514.227294921875	-1283.155517578125	40.24079513549805	-599.2189331054688	-1361.96728515625	43.58654403686523	-625.6892700195312	-1375.8486328125	49.05499267578125	-527.7213134765625	-1535.595336914062	44.30153656005859	-577.408203125	
